<svg width="207" height="239" viewBox="0 0 207 239" fill="none" xmlns="http://www.w3.org/2000/svg">
<path d="M94.4525 4.2576C74.1264 14.8106 29.2821 25.7451 6.41528 25.8723H0.19043L0.952657 52.827C3.1123 126.953 17.0865 169.8 49.9893 202.731C62.3119 214.937 74.5076 223.71 91.7847 232.356L103.599 238.205L115.033 232.61C151.365 214.556 175.63 188.491 189.731 152.763C200.275 125.935 206.373 85.6304 206.373 42.0197V25.8723H200.656C178.297 25.8723 137.518 16.0821 112.492 4.76619C107.41 2.35043 102.837 0.443253 102.329 0.443253C101.948 0.570404 98.3907 2.22328 94.4525 4.2576ZM151.747 48.7584C151.747 56.7685 151.492 57.6585 149.206 57.6585C147.173 57.6585 146.665 56.7685 146.665 53.3356C146.665 46.4698 144.124 44.944 132.945 44.8169C118.59 44.5626 115.795 44.944 113.381 47.1055C111.349 49.0127 111.094 52.3184 111.094 81.4347V113.602H123.163C129.769 113.602 135.232 114.111 135.232 114.747C135.232 119.324 133.707 119.96 122.401 119.96H111.094V152.89C111.094 177.683 111.476 186.075 112.746 187.092C113.508 187.728 116.938 188.745 120.368 189.254C124.179 189.889 126.339 190.779 126.339 191.924C126.339 193.322 122.147 193.704 103.472 193.704C84.6706 193.704 80.6054 193.322 80.6054 191.924C80.6054 190.779 82.765 189.889 86.8302 189.254C90.3873 188.745 93.8173 187.728 94.4525 186.838C95.3418 185.821 95.8499 161.027 95.9769 117.544C96.104 41.384 96.6121 44.944 86.8302 44.944C82.0028 44.944 79.8431 43.4183 81.2406 41.1297C81.7487 40.3668 94.9606 39.8582 116.938 39.8582H151.747V48.7584ZM80.6054 73.4245C80.6054 74.5688 78.5728 75.586 75.2698 76.0946C65.869 77.6203 65.3608 78.6375 65.3608 97.3278V113.602H77.4294C84.0354 113.602 89.498 113.984 89.498 114.365C89.498 114.747 88.8628 116.145 88.2276 117.544C87.0843 119.578 85.4328 119.96 76.159 119.96H65.3608V136.107C65.3608 145.134 65.869 153.017 66.3771 153.78C67.9016 156.196 72.602 158.103 76.6672 158.103C79.335 158.103 80.6054 158.739 80.6054 160.01C80.6054 161.663 77.1753 161.917 57.7386 161.917C39.191 161.917 34.8718 161.536 34.8718 160.137C34.8718 159.12 36.9044 158.103 40.2073 157.722C50.1163 156.45 50.1163 156.323 50.1163 116.908C50.1163 77.4932 50.1163 77.4932 40.5885 75.9674C37.0314 75.4588 34.8718 74.5688 34.8718 73.4245C34.8718 72.0259 39.064 71.6445 57.7386 71.6445C76.5402 71.6445 80.6054 71.8988 80.6054 73.4245ZM172.073 73.4245C172.073 74.5688 170.04 75.3317 166.102 75.8403C162.418 76.2217 159.496 77.366 158.48 78.7646C157.209 80.5446 156.828 89.3177 156.828 116.781C156.828 144.244 157.209 153.017 158.48 154.797C159.496 156.196 162.418 157.34 166.102 157.722C170.04 158.23 172.073 158.993 172.073 160.137C172.073 161.536 167.753 161.917 149.206 161.917C129.769 161.917 126.339 161.663 126.339 160.01C126.339 158.612 127.736 158.103 131.421 158.103C134.851 158.103 137.391 157.213 139.043 155.56C141.456 153.144 141.584 151.364 141.584 116.272C141.584 75.0774 141.965 76.8574 132.056 75.7131C128.372 75.3317 126.339 74.5688 126.339 73.4245C126.339 72.0259 130.658 71.6445 149.206 71.6445C167.753 71.6445 172.073 72.0259 172.073 73.4245Z" fill="#C0392B"/>
</svg>
